<mxfile host="app.diagrams.net" agent="Mozilla/5.0 (Windows NT 10.0; Win64; x64) AppleWebKit/537.36 (KHTML, like Gecko) Chrome/140.0.0.0 Safari/537.36" version="28.2.1">
  <diagram name="Страница — 1" id="1A4Rc3e6kyWmaYKOEMZM">
    <mxGraphModel dx="2875" dy="981" grid="1" gridSize="10" guides="1" tooltips="1" connect="1" arrows="1" fold="1" page="1" pageScale="1" pageWidth="827" pageHeight="1169" math="0" shadow="0">
      <root>
        <mxCell id="0" />
        <mxCell id="1" parent="0" />
        <mxCell id="6r_czfJmqFWzA4xo3NPq-1" value="FACULTY" style="rounded=0;whiteSpace=wrap;html=1;" vertex="1" parent="1">
          <mxGeometry x="380" y="848" width="120" height="60" as="geometry" />
        </mxCell>
        <mxCell id="6r_czfJmqFWzA4xo3NPq-2" value="PROGRAM" style="rounded=0;whiteSpace=wrap;html=1;" vertex="1" parent="1">
          <mxGeometry x="1050" y="416" width="120" height="60" as="geometry" />
        </mxCell>
        <mxCell id="6r_czfJmqFWzA4xo3NPq-3" value="TEACHER" style="rounded=0;whiteSpace=wrap;html=1;" vertex="1" parent="1">
          <mxGeometry x="-260" y="361" width="120" height="60" as="geometry" />
        </mxCell>
        <mxCell id="6r_czfJmqFWzA4xo3NPq-4" value="COURSE" style="rounded=0;whiteSpace=wrap;html=1;" vertex="1" parent="1">
          <mxGeometry x="633" y="206" width="120" height="60" as="geometry" />
        </mxCell>
        <mxCell id="6r_czfJmqFWzA4xo3NPq-5" value="GROUP" style="rounded=0;whiteSpace=wrap;html=1;" vertex="1" parent="1">
          <mxGeometry x="1100" y="960" width="120" height="60" as="geometry" />
        </mxCell>
        <mxCell id="6r_czfJmqFWzA4xo3NPq-6" value="STUDENT" style="rounded=0;whiteSpace=wrap;html=1;" vertex="1" parent="1">
          <mxGeometry x="740" y="1170" width="120" height="60" as="geometry" />
        </mxCell>
        <mxCell id="6r_czfJmqFWzA4xo3NPq-8" value="&lt;b&gt;faculty_id&lt;/b&gt;" style="ellipse;whiteSpace=wrap;html=1;" vertex="1" parent="1">
          <mxGeometry x="290" y="672" width="120" height="80" as="geometry" />
        </mxCell>
        <mxCell id="6r_czfJmqFWzA4xo3NPq-10" value="faculty_name" style="ellipse;whiteSpace=wrap;html=1;" vertex="1" parent="1">
          <mxGeometry x="610" y="728" width="120" height="80" as="geometry" />
        </mxCell>
        <mxCell id="6r_czfJmqFWzA4xo3NPq-11" value="dean" style="ellipse;whiteSpace=wrap;html=1;" vertex="1" parent="1">
          <mxGeometry x="300" y="988" width="120" height="80" as="geometry" />
        </mxCell>
        <mxCell id="6r_czfJmqFWzA4xo3NPq-12" value="" style="endArrow=none;html=1;rounded=0;exitX=0;exitY=0;exitDx=0;exitDy=0;" edge="1" parent="1" source="6r_czfJmqFWzA4xo3NPq-1" target="6r_czfJmqFWzA4xo3NPq-8">
          <mxGeometry width="50" height="50" relative="1" as="geometry">
            <mxPoint x="340" y="888" as="sourcePoint" />
            <mxPoint x="390" y="838" as="targetPoint" />
          </mxGeometry>
        </mxCell>
        <mxCell id="6r_czfJmqFWzA4xo3NPq-13" value="" style="endArrow=none;html=1;rounded=0;exitX=0.333;exitY=0;exitDx=0;exitDy=0;exitPerimeter=0;entryX=0;entryY=1;entryDx=0;entryDy=0;" edge="1" parent="1" source="6r_czfJmqFWzA4xo3NPq-11" target="6r_czfJmqFWzA4xo3NPq-1">
          <mxGeometry width="50" height="50" relative="1" as="geometry">
            <mxPoint x="340" y="888" as="sourcePoint" />
            <mxPoint x="390" y="838" as="targetPoint" />
          </mxGeometry>
        </mxCell>
        <mxCell id="6r_czfJmqFWzA4xo3NPq-14" value="" style="endArrow=none;html=1;rounded=0;exitX=1;exitY=0;exitDx=0;exitDy=0;" edge="1" parent="1" source="6r_czfJmqFWzA4xo3NPq-1" target="6r_czfJmqFWzA4xo3NPq-10">
          <mxGeometry width="50" height="50" relative="1" as="geometry">
            <mxPoint x="340" y="888" as="sourcePoint" />
            <mxPoint x="390" y="838" as="targetPoint" />
            <Array as="points" />
          </mxGeometry>
        </mxCell>
        <mxCell id="6r_czfJmqFWzA4xo3NPq-15" value="qualification" style="ellipse;whiteSpace=wrap;html=1;" vertex="1" parent="1">
          <mxGeometry x="1180" y="656" width="120" height="80" as="geometry" />
        </mxCell>
        <mxCell id="6r_czfJmqFWzA4xo3NPq-16" value="&lt;b&gt;program_id&lt;/b&gt;" style="ellipse;whiteSpace=wrap;html=1;" vertex="1" parent="1">
          <mxGeometry x="1060" y="216" width="120" height="80" as="geometry" />
        </mxCell>
        <mxCell id="6r_czfJmqFWzA4xo3NPq-17" value="program_code" style="ellipse;whiteSpace=wrap;html=1;" vertex="1" parent="1">
          <mxGeometry x="1300" y="526" width="120" height="80" as="geometry" />
        </mxCell>
        <mxCell id="6r_czfJmqFWzA4xo3NPq-18" value="program_name" style="ellipse;whiteSpace=wrap;html=1;" vertex="1" parent="1">
          <mxGeometry x="1310" y="316" width="120" height="80" as="geometry" />
        </mxCell>
        <mxCell id="6r_czfJmqFWzA4xo3NPq-20" value="" style="endArrow=none;html=1;rounded=0;exitX=0.5;exitY=0;exitDx=0;exitDy=0;entryX=0.5;entryY=1;entryDx=0;entryDy=0;" edge="1" parent="1" source="6r_czfJmqFWzA4xo3NPq-2" target="6r_czfJmqFWzA4xo3NPq-16">
          <mxGeometry width="50" height="50" relative="1" as="geometry">
            <mxPoint x="1000" y="646" as="sourcePoint" />
            <mxPoint x="1110" y="306" as="targetPoint" />
          </mxGeometry>
        </mxCell>
        <mxCell id="6r_czfJmqFWzA4xo3NPq-21" value="" style="endArrow=none;html=1;rounded=0;entryX=0;entryY=1;entryDx=0;entryDy=0;exitX=1;exitY=0.5;exitDx=0;exitDy=0;" edge="1" parent="1" source="6r_czfJmqFWzA4xo3NPq-2" target="6r_czfJmqFWzA4xo3NPq-18">
          <mxGeometry width="50" height="50" relative="1" as="geometry">
            <mxPoint x="1000" y="646" as="sourcePoint" />
            <mxPoint x="1050" y="596" as="targetPoint" />
          </mxGeometry>
        </mxCell>
        <mxCell id="6r_czfJmqFWzA4xo3NPq-22" value="" style="endArrow=none;html=1;rounded=0;exitX=1;exitY=1;exitDx=0;exitDy=0;" edge="1" parent="1" source="6r_czfJmqFWzA4xo3NPq-2" target="6r_czfJmqFWzA4xo3NPq-17">
          <mxGeometry width="50" height="50" relative="1" as="geometry">
            <mxPoint x="1000" y="646" as="sourcePoint" />
            <mxPoint x="1050" y="596" as="targetPoint" />
          </mxGeometry>
        </mxCell>
        <mxCell id="6r_czfJmqFWzA4xo3NPq-23" value="" style="endArrow=none;html=1;rounded=0;entryX=0.5;entryY=0;entryDx=0;entryDy=0;exitX=0.5;exitY=1;exitDx=0;exitDy=0;" edge="1" parent="1" source="6r_czfJmqFWzA4xo3NPq-2" target="6r_czfJmqFWzA4xo3NPq-15">
          <mxGeometry width="50" height="50" relative="1" as="geometry">
            <mxPoint x="1000" y="646" as="sourcePoint" />
            <mxPoint x="1050" y="596" as="targetPoint" />
          </mxGeometry>
        </mxCell>
        <mxCell id="6r_czfJmqFWzA4xo3NPq-24" value="patronymic" style="ellipse;whiteSpace=wrap;html=1;" vertex="1" parent="1">
          <mxGeometry x="-270" y="191" width="120" height="80" as="geometry" />
        </mxCell>
        <mxCell id="6r_czfJmqFWzA4xo3NPq-25" value="last_name" style="ellipse;whiteSpace=wrap;html=1;" vertex="1" parent="1">
          <mxGeometry x="-480" y="241" width="120" height="80" as="geometry" />
        </mxCell>
        <mxCell id="6r_czfJmqFWzA4xo3NPq-26" value="first_name" style="ellipse;whiteSpace=wrap;html=1;" vertex="1" parent="1">
          <mxGeometry x="-460" y="461" width="120" height="80" as="geometry" />
        </mxCell>
        <mxCell id="6r_czfJmqFWzA4xo3NPq-27" value="&lt;b&gt;teacher_id&lt;/b&gt;" style="ellipse;whiteSpace=wrap;html=1;" vertex="1" parent="1">
          <mxGeometry x="-260" y="521" width="120" height="80" as="geometry" />
        </mxCell>
        <mxCell id="6r_czfJmqFWzA4xo3NPq-28" value="academic_degree" style="ellipse;whiteSpace=wrap;html=1;" vertex="1" parent="1">
          <mxGeometry x="-100" y="291" width="120" height="80" as="geometry" />
        </mxCell>
        <mxCell id="6r_czfJmqFWzA4xo3NPq-29" value="" style="endArrow=none;html=1;rounded=0;exitX=0.419;exitY=0.979;exitDx=0;exitDy=0;exitPerimeter=0;entryX=0.417;entryY=0;entryDx=0;entryDy=0;entryPerimeter=0;" edge="1" parent="1" source="6r_czfJmqFWzA4xo3NPq-3" target="6r_czfJmqFWzA4xo3NPq-27">
          <mxGeometry width="50" height="50" relative="1" as="geometry">
            <mxPoint x="-80" y="611" as="sourcePoint" />
            <mxPoint x="-30" y="561" as="targetPoint" />
          </mxGeometry>
        </mxCell>
        <mxCell id="6r_czfJmqFWzA4xo3NPq-30" value="" style="endArrow=none;html=1;rounded=0;exitX=1;exitY=0.5;exitDx=0;exitDy=0;" edge="1" parent="1" source="6r_czfJmqFWzA4xo3NPq-3" target="6r_czfJmqFWzA4xo3NPq-28">
          <mxGeometry width="50" height="50" relative="1" as="geometry">
            <mxPoint x="-80" y="611" as="sourcePoint" />
            <mxPoint x="-30" y="561" as="targetPoint" />
          </mxGeometry>
        </mxCell>
        <mxCell id="6r_czfJmqFWzA4xo3NPq-31" value="" style="endArrow=none;html=1;rounded=0;" edge="1" parent="1" source="6r_czfJmqFWzA4xo3NPq-3" target="6r_czfJmqFWzA4xo3NPq-26">
          <mxGeometry width="50" height="50" relative="1" as="geometry">
            <mxPoint x="-80" y="611" as="sourcePoint" />
            <mxPoint x="-30" y="561" as="targetPoint" />
          </mxGeometry>
        </mxCell>
        <mxCell id="6r_czfJmqFWzA4xo3NPq-32" value="" style="endArrow=none;html=1;rounded=0;entryX=0.5;entryY=1;entryDx=0;entryDy=0;exitX=0.44;exitY=0.083;exitDx=0;exitDy=0;exitPerimeter=0;" edge="1" parent="1" source="6r_czfJmqFWzA4xo3NPq-3" target="6r_czfJmqFWzA4xo3NPq-24">
          <mxGeometry width="50" height="50" relative="1" as="geometry">
            <mxPoint x="-80" y="611" as="sourcePoint" />
            <mxPoint x="-30" y="561" as="targetPoint" />
          </mxGeometry>
        </mxCell>
        <mxCell id="6r_czfJmqFWzA4xo3NPq-33" value="" style="endArrow=none;html=1;rounded=0;" edge="1" parent="1" target="6r_czfJmqFWzA4xo3NPq-25">
          <mxGeometry width="50" height="50" relative="1" as="geometry">
            <mxPoint x="-260" y="380" as="sourcePoint" />
            <mxPoint x="-30" y="561" as="targetPoint" />
          </mxGeometry>
        </mxCell>
        <mxCell id="6r_czfJmqFWzA4xo3NPq-34" value="hours" style="ellipse;whiteSpace=wrap;html=1;" vertex="1" parent="1">
          <mxGeometry x="503" y="356" width="120" height="80" as="geometry" />
        </mxCell>
        <mxCell id="6r_czfJmqFWzA4xo3NPq-35" value="credits" style="ellipse;whiteSpace=wrap;html=1;" vertex="1" parent="1">
          <mxGeometry x="683" y="366" width="120" height="80" as="geometry" />
        </mxCell>
        <mxCell id="6r_czfJmqFWzA4xo3NPq-36" value="description" style="ellipse;whiteSpace=wrap;html=1;" vertex="1" parent="1">
          <mxGeometry x="823" y="86" width="120" height="80" as="geometry" />
        </mxCell>
        <mxCell id="6r_czfJmqFWzA4xo3NPq-37" value="course_name" style="ellipse;whiteSpace=wrap;html=1;" vertex="1" parent="1">
          <mxGeometry x="643" y="66" width="120" height="80" as="geometry" />
        </mxCell>
        <mxCell id="6r_czfJmqFWzA4xo3NPq-38" value="&lt;b&gt;course_id&lt;/b&gt;" style="ellipse;whiteSpace=wrap;html=1;" vertex="1" parent="1">
          <mxGeometry x="477" y="76" width="120" height="80" as="geometry" />
        </mxCell>
        <mxCell id="6r_czfJmqFWzA4xo3NPq-39" value="" style="endArrow=none;html=1;rounded=0;entryX=0;entryY=1;entryDx=0;entryDy=0;" edge="1" parent="1" source="6r_czfJmqFWzA4xo3NPq-34" target="6r_czfJmqFWzA4xo3NPq-4">
          <mxGeometry width="50" height="50" relative="1" as="geometry">
            <mxPoint x="613" y="396" as="sourcePoint" />
            <mxPoint x="663" y="346" as="targetPoint" />
          </mxGeometry>
        </mxCell>
        <mxCell id="6r_czfJmqFWzA4xo3NPq-40" value="" style="endArrow=none;html=1;rounded=0;entryX=0.5;entryY=1;entryDx=0;entryDy=0;" edge="1" parent="1" source="6r_czfJmqFWzA4xo3NPq-35" target="6r_czfJmqFWzA4xo3NPq-4">
          <mxGeometry width="50" height="50" relative="1" as="geometry">
            <mxPoint x="613" y="396" as="sourcePoint" />
            <mxPoint x="663" y="346" as="targetPoint" />
          </mxGeometry>
        </mxCell>
        <mxCell id="6r_czfJmqFWzA4xo3NPq-41" value="" style="endArrow=none;html=1;rounded=0;entryX=1;entryY=0.5;entryDx=0;entryDy=0;exitX=0.304;exitY=0.953;exitDx=0;exitDy=0;exitPerimeter=0;" edge="1" parent="1" source="6r_czfJmqFWzA4xo3NPq-36" target="6r_czfJmqFWzA4xo3NPq-4">
          <mxGeometry width="50" height="50" relative="1" as="geometry">
            <mxPoint x="613" y="396" as="sourcePoint" />
            <mxPoint x="663" y="346" as="targetPoint" />
          </mxGeometry>
        </mxCell>
        <mxCell id="6r_czfJmqFWzA4xo3NPq-42" value="" style="endArrow=none;html=1;rounded=0;entryX=0.729;entryY=0.891;entryDx=0;entryDy=0;entryPerimeter=0;exitX=0;exitY=0;exitDx=0;exitDy=0;" edge="1" parent="1" source="6r_czfJmqFWzA4xo3NPq-4" target="6r_czfJmqFWzA4xo3NPq-38">
          <mxGeometry width="50" height="50" relative="1" as="geometry">
            <mxPoint x="583" y="236" as="sourcePoint" />
            <mxPoint x="633" y="186" as="targetPoint" />
          </mxGeometry>
        </mxCell>
        <mxCell id="6r_czfJmqFWzA4xo3NPq-43" value="" style="endArrow=none;html=1;rounded=0;entryX=0.5;entryY=1;entryDx=0;entryDy=0;exitX=0.5;exitY=0;exitDx=0;exitDy=0;" edge="1" parent="1" source="6r_czfJmqFWzA4xo3NPq-4" target="6r_czfJmqFWzA4xo3NPq-37">
          <mxGeometry width="50" height="50" relative="1" as="geometry">
            <mxPoint x="613" y="396" as="sourcePoint" />
            <mxPoint x="663" y="346" as="targetPoint" />
          </mxGeometry>
        </mxCell>
        <mxCell id="6r_czfJmqFWzA4xo3NPq-44" value="group_name" style="ellipse;whiteSpace=wrap;html=1;" vertex="1" parent="1">
          <mxGeometry x="1290" y="1040" width="120" height="80" as="geometry" />
        </mxCell>
        <mxCell id="6r_czfJmqFWzA4xo3NPq-45" value="&lt;b&gt;group_id&lt;/b&gt;" style="ellipse;whiteSpace=wrap;html=1;" vertex="1" parent="1">
          <mxGeometry x="1210" y="870" width="120" height="80" as="geometry" />
        </mxCell>
        <mxCell id="6r_czfJmqFWzA4xo3NPq-46" value="" style="endArrow=none;html=1;rounded=0;entryX=1;entryY=1;entryDx=0;entryDy=0;" edge="1" parent="1" source="6r_czfJmqFWzA4xo3NPq-44" target="6r_czfJmqFWzA4xo3NPq-5">
          <mxGeometry width="50" height="50" relative="1" as="geometry">
            <mxPoint x="1470" y="1210" as="sourcePoint" />
            <mxPoint x="1520" y="1160" as="targetPoint" />
          </mxGeometry>
        </mxCell>
        <mxCell id="6r_czfJmqFWzA4xo3NPq-47" value="" style="endArrow=none;html=1;rounded=0;exitX=1;exitY=0;exitDx=0;exitDy=0;" edge="1" parent="1" source="6r_czfJmqFWzA4xo3NPq-5" target="6r_czfJmqFWzA4xo3NPq-45">
          <mxGeometry width="50" height="50" relative="1" as="geometry">
            <mxPoint x="1470" y="1210" as="sourcePoint" />
            <mxPoint x="1520" y="1160" as="targetPoint" />
          </mxGeometry>
        </mxCell>
        <mxCell id="6r_czfJmqFWzA4xo3NPq-48" value="&lt;b&gt;student_id&lt;/b&gt;" style="ellipse;whiteSpace=wrap;html=1;" vertex="1" parent="1">
          <mxGeometry x="530" y="1200" width="120" height="80" as="geometry" />
        </mxCell>
        <mxCell id="6r_czfJmqFWzA4xo3NPq-49" value="first_name" style="ellipse;whiteSpace=wrap;html=1;" vertex="1" parent="1">
          <mxGeometry x="650" y="1350" width="120" height="80" as="geometry" />
        </mxCell>
        <mxCell id="6r_czfJmqFWzA4xo3NPq-50" value="last_name" style="ellipse;whiteSpace=wrap;html=1;" vertex="1" parent="1">
          <mxGeometry x="900" y="1329" width="120" height="80" as="geometry" />
        </mxCell>
        <mxCell id="6r_czfJmqFWzA4xo3NPq-51" value="patronymic" style="ellipse;whiteSpace=wrap;html=1;" vertex="1" parent="1">
          <mxGeometry x="960" y="1160" width="120" height="80" as="geometry" />
        </mxCell>
        <mxCell id="6r_czfJmqFWzA4xo3NPq-52" value="" style="endArrow=none;html=1;rounded=0;entryX=0;entryY=0.5;entryDx=0;entryDy=0;exitX=1;exitY=0.5;exitDx=0;exitDy=0;" edge="1" parent="1" source="6r_czfJmqFWzA4xo3NPq-48" target="6r_czfJmqFWzA4xo3NPq-6">
          <mxGeometry width="50" height="50" relative="1" as="geometry">
            <mxPoint x="660" y="1290" as="sourcePoint" />
            <mxPoint x="710" y="1240" as="targetPoint" />
          </mxGeometry>
        </mxCell>
        <mxCell id="6r_czfJmqFWzA4xo3NPq-53" value="" style="endArrow=none;html=1;rounded=0;entryX=0;entryY=1;entryDx=0;entryDy=0;exitX=0.5;exitY=0;exitDx=0;exitDy=0;" edge="1" parent="1" source="6r_czfJmqFWzA4xo3NPq-49" target="6r_czfJmqFWzA4xo3NPq-6">
          <mxGeometry width="50" height="50" relative="1" as="geometry">
            <mxPoint x="660" y="1290" as="sourcePoint" />
            <mxPoint x="710" y="1240" as="targetPoint" />
          </mxGeometry>
        </mxCell>
        <mxCell id="6r_czfJmqFWzA4xo3NPq-54" value="" style="endArrow=none;html=1;rounded=0;entryX=1;entryY=1;entryDx=0;entryDy=0;" edge="1" parent="1" source="6r_czfJmqFWzA4xo3NPq-50" target="6r_czfJmqFWzA4xo3NPq-6">
          <mxGeometry width="50" height="50" relative="1" as="geometry">
            <mxPoint x="660" y="1290" as="sourcePoint" />
            <mxPoint x="710" y="1240" as="targetPoint" />
          </mxGeometry>
        </mxCell>
        <mxCell id="6r_czfJmqFWzA4xo3NPq-55" value="" style="endArrow=none;html=1;rounded=0;entryX=1;entryY=0.5;entryDx=0;entryDy=0;" edge="1" parent="1" source="6r_czfJmqFWzA4xo3NPq-51" target="6r_czfJmqFWzA4xo3NPq-6">
          <mxGeometry width="50" height="50" relative="1" as="geometry">
            <mxPoint x="660" y="1290" as="sourcePoint" />
            <mxPoint x="710" y="1240" as="targetPoint" />
          </mxGeometry>
        </mxCell>
        <mxCell id="6r_czfJmqFWzA4xo3NPq-56" value="OFFERS" style="rhombus;whiteSpace=wrap;html=1;" vertex="1" parent="1">
          <mxGeometry x="650" y="540" width="140" height="80" as="geometry" />
        </mxCell>
        <mxCell id="6r_czfJmqFWzA4xo3NPq-57" value="" style="endArrow=none;html=1;rounded=0;exitX=0.5;exitY=0;exitDx=0;exitDy=0;entryX=0;entryY=0.5;entryDx=0;entryDy=0;" edge="1" parent="1" source="6r_czfJmqFWzA4xo3NPq-1" target="6r_czfJmqFWzA4xo3NPq-56">
          <mxGeometry width="50" height="50" relative="1" as="geometry">
            <mxPoint x="750" y="720" as="sourcePoint" />
            <mxPoint x="800" y="670" as="targetPoint" />
          </mxGeometry>
        </mxCell>
        <mxCell id="6r_czfJmqFWzA4xo3NPq-82" value="&lt;font style=&quot;font-size: 18px;&quot;&gt;1&lt;/font&gt;" style="edgeLabel;html=1;align=center;verticalAlign=middle;resizable=0;points=[];" vertex="1" connectable="0" parent="6r_czfJmqFWzA4xo3NPq-57">
          <mxGeometry x="-0.8005" relative="1" as="geometry">
            <mxPoint as="offset" />
          </mxGeometry>
        </mxCell>
        <mxCell id="6r_czfJmqFWzA4xo3NPq-58" value="" style="endArrow=none;html=1;rounded=0;entryX=0;entryY=1;entryDx=0;entryDy=0;exitX=1;exitY=0.5;exitDx=0;exitDy=0;" edge="1" parent="1" source="6r_czfJmqFWzA4xo3NPq-56" target="6r_czfJmqFWzA4xo3NPq-2">
          <mxGeometry width="50" height="50" relative="1" as="geometry">
            <mxPoint x="750" y="720" as="sourcePoint" />
            <mxPoint x="800" y="670" as="targetPoint" />
          </mxGeometry>
        </mxCell>
        <mxCell id="6r_czfJmqFWzA4xo3NPq-80" value="&lt;font style=&quot;font-size: 18px;&quot;&gt;n&lt;/font&gt;" style="edgeLabel;html=1;align=center;verticalAlign=middle;resizable=0;points=[];" vertex="1" connectable="0" parent="6r_czfJmqFWzA4xo3NPq-58">
          <mxGeometry x="0.8229" y="-1" relative="1" as="geometry">
            <mxPoint as="offset" />
          </mxGeometry>
        </mxCell>
        <mxCell id="6r_czfJmqFWzA4xo3NPq-59" value="WORKS_IN" style="rhombus;whiteSpace=wrap;html=1;" vertex="1" parent="1">
          <mxGeometry x="250" y="436" width="150" height="80" as="geometry" />
        </mxCell>
        <mxCell id="6r_czfJmqFWzA4xo3NPq-60" value="" style="endArrow=none;html=1;rounded=0;entryX=0;entryY=0.5;entryDx=0;entryDy=0;exitX=1;exitY=1;exitDx=0;exitDy=0;" edge="1" parent="1" source="6r_czfJmqFWzA4xo3NPq-3" target="6r_czfJmqFWzA4xo3NPq-59">
          <mxGeometry width="50" height="50" relative="1" as="geometry">
            <mxPoint x="290" y="560" as="sourcePoint" />
            <mxPoint x="340" y="510" as="targetPoint" />
          </mxGeometry>
        </mxCell>
        <mxCell id="6r_czfJmqFWzA4xo3NPq-108" value="&lt;font style=&quot;font-size: 18px;&quot;&gt;n&lt;/font&gt;" style="edgeLabel;html=1;align=center;verticalAlign=middle;resizable=0;points=[];" vertex="1" connectable="0" parent="6r_czfJmqFWzA4xo3NPq-60">
          <mxGeometry x="-0.9183" relative="1" as="geometry">
            <mxPoint as="offset" />
          </mxGeometry>
        </mxCell>
        <mxCell id="6r_czfJmqFWzA4xo3NPq-61" value="" style="endArrow=none;html=1;rounded=0;entryX=1;entryY=0.5;entryDx=0;entryDy=0;exitX=0.5;exitY=0;exitDx=0;exitDy=0;" edge="1" parent="1" source="6r_czfJmqFWzA4xo3NPq-1" target="6r_czfJmqFWzA4xo3NPq-59">
          <mxGeometry width="50" height="50" relative="1" as="geometry">
            <mxPoint x="290" y="560" as="sourcePoint" />
            <mxPoint x="340" y="510" as="targetPoint" />
          </mxGeometry>
        </mxCell>
        <mxCell id="6r_czfJmqFWzA4xo3NPq-64" value="STUDIES_IN" style="rhombus;whiteSpace=wrap;html=1;" vertex="1" parent="1">
          <mxGeometry x="940" y="790" width="110" height="80" as="geometry" />
        </mxCell>
        <mxCell id="6r_czfJmqFWzA4xo3NPq-65" value="" style="endArrow=none;html=1;rounded=0;entryX=0.5;entryY=1;entryDx=0;entryDy=0;exitX=0;exitY=0;exitDx=0;exitDy=0;" edge="1" parent="1" source="6r_czfJmqFWzA4xo3NPq-5" target="6r_czfJmqFWzA4xo3NPq-64">
          <mxGeometry width="50" height="50" relative="1" as="geometry">
            <mxPoint x="990" y="960" as="sourcePoint" />
            <mxPoint x="1040" y="910" as="targetPoint" />
          </mxGeometry>
        </mxCell>
        <mxCell id="6r_czfJmqFWzA4xo3NPq-66" value="" style="endArrow=none;html=1;rounded=0;entryX=0.25;entryY=1;entryDx=0;entryDy=0;exitX=0.5;exitY=0;exitDx=0;exitDy=0;" edge="1" parent="1" source="6r_czfJmqFWzA4xo3NPq-64" target="6r_czfJmqFWzA4xo3NPq-2">
          <mxGeometry width="50" height="50" relative="1" as="geometry">
            <mxPoint x="990" y="960" as="sourcePoint" />
            <mxPoint x="1040" y="910" as="targetPoint" />
          </mxGeometry>
        </mxCell>
        <mxCell id="6r_czfJmqFWzA4xo3NPq-67" value="BELONGS_TO" style="rhombus;whiteSpace=wrap;html=1;" vertex="1" parent="1">
          <mxGeometry x="840" y="980" width="130" height="80" as="geometry" />
        </mxCell>
        <mxCell id="6r_czfJmqFWzA4xo3NPq-68" value="" style="endArrow=none;html=1;rounded=0;exitX=0.5;exitY=0;exitDx=0;exitDy=0;entryX=0;entryY=1;entryDx=0;entryDy=0;" edge="1" parent="1" source="6r_czfJmqFWzA4xo3NPq-6" target="6r_czfJmqFWzA4xo3NPq-67">
          <mxGeometry width="50" height="50" relative="1" as="geometry">
            <mxPoint x="870" y="1050" as="sourcePoint" />
            <mxPoint x="920" y="1000" as="targetPoint" />
          </mxGeometry>
        </mxCell>
        <mxCell id="6r_czfJmqFWzA4xo3NPq-69" value="" style="endArrow=none;html=1;rounded=0;entryX=0;entryY=0.5;entryDx=0;entryDy=0;exitX=1;exitY=0;exitDx=0;exitDy=0;" edge="1" parent="1" source="6r_czfJmqFWzA4xo3NPq-67" target="6r_czfJmqFWzA4xo3NPq-5">
          <mxGeometry width="50" height="50" relative="1" as="geometry">
            <mxPoint x="870" y="1050" as="sourcePoint" />
            <mxPoint x="920" y="1000" as="targetPoint" />
          </mxGeometry>
        </mxCell>
        <mxCell id="6r_czfJmqFWzA4xo3NPq-70" value="INCLUDES" style="rhombus;whiteSpace=wrap;html=1;" vertex="1" parent="1">
          <mxGeometry x="830" y="290" width="130" height="80" as="geometry" />
        </mxCell>
        <mxCell id="6r_czfJmqFWzA4xo3NPq-71" value="" style="endArrow=none;html=1;rounded=0;entryX=0;entryY=0;entryDx=0;entryDy=0;exitX=1;exitY=1;exitDx=0;exitDy=0;" edge="1" parent="1" source="6r_czfJmqFWzA4xo3NPq-70" target="6r_czfJmqFWzA4xo3NPq-2">
          <mxGeometry width="50" height="50" relative="1" as="geometry">
            <mxPoint x="800" y="640" as="sourcePoint" />
            <mxPoint x="850" y="590" as="targetPoint" />
          </mxGeometry>
        </mxCell>
        <mxCell id="6r_czfJmqFWzA4xo3NPq-72" value="" style="endArrow=none;html=1;rounded=0;entryX=0;entryY=0;entryDx=0;entryDy=0;exitX=1;exitY=1;exitDx=0;exitDy=0;" edge="1" parent="1" source="6r_czfJmqFWzA4xo3NPq-4" target="6r_czfJmqFWzA4xo3NPq-70">
          <mxGeometry width="50" height="50" relative="1" as="geometry">
            <mxPoint x="800" y="640" as="sourcePoint" />
            <mxPoint x="850" y="590" as="targetPoint" />
          </mxGeometry>
        </mxCell>
        <mxCell id="6r_czfJmqFWzA4xo3NPq-73" value="TEACHES" style="rhombus;whiteSpace=wrap;html=1;" vertex="1" parent="1">
          <mxGeometry x="270" y="296" width="130" height="80" as="geometry" />
        </mxCell>
        <mxCell id="6r_czfJmqFWzA4xo3NPq-74" value="" style="endArrow=none;html=1;rounded=0;exitX=1;exitY=0.75;exitDx=0;exitDy=0;entryX=0;entryY=0.5;entryDx=0;entryDy=0;" edge="1" parent="1" source="6r_czfJmqFWzA4xo3NPq-3" target="6r_czfJmqFWzA4xo3NPq-73">
          <mxGeometry width="50" height="50" relative="1" as="geometry">
            <mxPoint x="300" y="630" as="sourcePoint" />
            <mxPoint x="350" y="580" as="targetPoint" />
          </mxGeometry>
        </mxCell>
        <mxCell id="6r_czfJmqFWzA4xo3NPq-91" value="&lt;font style=&quot;font-size: 18px;&quot;&gt;n&lt;/font&gt;" style="edgeLabel;html=1;align=center;verticalAlign=middle;resizable=0;points=[];" vertex="1" connectable="0" parent="6r_czfJmqFWzA4xo3NPq-74">
          <mxGeometry x="-0.7807" y="4" relative="1" as="geometry">
            <mxPoint x="-1" as="offset" />
          </mxGeometry>
        </mxCell>
        <mxCell id="6r_czfJmqFWzA4xo3NPq-75" value="" style="endArrow=none;html=1;rounded=0;entryX=0;entryY=0.5;entryDx=0;entryDy=0;exitX=1;exitY=0.5;exitDx=0;exitDy=0;" edge="1" parent="1" source="6r_czfJmqFWzA4xo3NPq-73" target="6r_czfJmqFWzA4xo3NPq-4">
          <mxGeometry width="50" height="50" relative="1" as="geometry">
            <mxPoint x="300" y="630" as="sourcePoint" />
            <mxPoint x="350" y="580" as="targetPoint" />
          </mxGeometry>
        </mxCell>
        <mxCell id="6r_czfJmqFWzA4xo3NPq-92" value="&lt;font style=&quot;font-size: 18px;&quot;&gt;n&lt;/font&gt;" style="edgeLabel;html=1;align=center;verticalAlign=middle;resizable=0;points=[];" vertex="1" connectable="0" parent="6r_czfJmqFWzA4xo3NPq-75">
          <mxGeometry x="0.8205" y="-5" relative="1" as="geometry">
            <mxPoint y="1" as="offset" />
          </mxGeometry>
        </mxCell>
        <mxCell id="6r_czfJmqFWzA4xo3NPq-76" value="ENROLLED_IN" style="rhombus;whiteSpace=wrap;html=1;" vertex="1" parent="1">
          <mxGeometry x="890" y="592" width="130" height="80" as="geometry" />
        </mxCell>
        <mxCell id="6r_czfJmqFWzA4xo3NPq-77" value="" style="endArrow=none;html=1;rounded=0;entryX=0.5;entryY=1;entryDx=0;entryDy=0;exitX=0;exitY=0;exitDx=0;exitDy=0;" edge="1" parent="1" source="6r_czfJmqFWzA4xo3NPq-6" target="6r_czfJmqFWzA4xo3NPq-76">
          <mxGeometry width="50" height="50" relative="1" as="geometry">
            <mxPoint x="720" y="780" as="sourcePoint" />
            <mxPoint x="770" y="730" as="targetPoint" />
          </mxGeometry>
        </mxCell>
        <mxCell id="6r_czfJmqFWzA4xo3NPq-93" value="&lt;font style=&quot;font-size: 18px;&quot;&gt;n&lt;/font&gt;" style="edgeLabel;html=1;align=center;verticalAlign=middle;resizable=0;points=[];" vertex="1" connectable="0" parent="6r_czfJmqFWzA4xo3NPq-77">
          <mxGeometry x="-0.9061" y="1" relative="1" as="geometry">
            <mxPoint as="offset" />
          </mxGeometry>
        </mxCell>
        <mxCell id="6r_czfJmqFWzA4xo3NPq-78" value="" style="endArrow=none;html=1;rounded=0;entryX=0;entryY=0;entryDx=0;entryDy=0;exitX=1;exitY=1;exitDx=0;exitDy=0;" edge="1" parent="1" source="6r_czfJmqFWzA4xo3NPq-4" target="6r_czfJmqFWzA4xo3NPq-76">
          <mxGeometry width="50" height="50" relative="1" as="geometry">
            <mxPoint x="720" y="780" as="sourcePoint" />
            <mxPoint x="770" y="730" as="targetPoint" />
          </mxGeometry>
        </mxCell>
        <mxCell id="6r_czfJmqFWzA4xo3NPq-94" value="&lt;font style=&quot;font-size: 18px;&quot;&gt;n&lt;/font&gt;" style="edgeLabel;html=1;align=center;verticalAlign=middle;resizable=0;points=[];" vertex="1" connectable="0" parent="6r_czfJmqFWzA4xo3NPq-78">
          <mxGeometry x="-0.8509" y="1" relative="1" as="geometry">
            <mxPoint as="offset" />
          </mxGeometry>
        </mxCell>
        <mxCell id="6r_czfJmqFWzA4xo3NPq-83" value="&lt;font style=&quot;font-size: 18px;&quot;&gt;1&lt;/font&gt;" style="text;html=1;align=center;verticalAlign=middle;resizable=0;points=[];autosize=1;strokeColor=none;fillColor=none;" vertex="1" parent="1">
          <mxGeometry x="405" y="803" width="30" height="40" as="geometry" />
        </mxCell>
        <mxCell id="6r_czfJmqFWzA4xo3NPq-85" value="&lt;font style=&quot;font-size: 18px;&quot;&gt;1&lt;/font&gt;" style="text;html=1;align=center;verticalAlign=middle;resizable=0;points=[];autosize=1;strokeColor=none;fillColor=none;" vertex="1" parent="1">
          <mxGeometry x="1065" y="483" width="30" height="40" as="geometry" />
        </mxCell>
        <mxCell id="6r_czfJmqFWzA4xo3NPq-86" value="&lt;font style=&quot;font-size: 18px;&quot;&gt;n&lt;/font&gt;" style="text;html=1;align=center;verticalAlign=middle;resizable=0;points=[];autosize=1;strokeColor=none;fillColor=none;" vertex="1" parent="1">
          <mxGeometry x="1095" y="923" width="30" height="40" as="geometry" />
        </mxCell>
        <mxCell id="6r_czfJmqFWzA4xo3NPq-87" value="&lt;font style=&quot;font-size: 18px;&quot;&gt;1&lt;/font&gt;" style="text;html=1;align=center;verticalAlign=middle;resizable=0;points=[];autosize=1;strokeColor=none;fillColor=none;" vertex="1" parent="1">
          <mxGeometry x="1065" y="983" width="30" height="40" as="geometry" />
        </mxCell>
        <mxCell id="6r_czfJmqFWzA4xo3NPq-88" value="&lt;font style=&quot;font-size: 18px;&quot;&gt;n&lt;/font&gt;" style="text;html=1;align=center;verticalAlign=middle;resizable=0;points=[];autosize=1;strokeColor=none;fillColor=none;" vertex="1" parent="1">
          <mxGeometry x="825" y="1133" width="30" height="40" as="geometry" />
        </mxCell>
        <mxCell id="6r_czfJmqFWzA4xo3NPq-89" value="&lt;font style=&quot;font-size: 18px;&quot;&gt;n&lt;/font&gt;" style="text;html=1;align=center;verticalAlign=middle;resizable=0;points=[];autosize=1;strokeColor=none;fillColor=none;" vertex="1" parent="1">
          <mxGeometry x="1035" y="383" width="30" height="40" as="geometry" />
        </mxCell>
        <mxCell id="6r_czfJmqFWzA4xo3NPq-90" value="&lt;font style=&quot;font-size: 18px;&quot;&gt;n&lt;/font&gt;" style="text;html=1;align=center;verticalAlign=middle;resizable=0;points=[];autosize=1;strokeColor=none;fillColor=none;" vertex="1" parent="1">
          <mxGeometry x="755" y="233" width="30" height="40" as="geometry" />
        </mxCell>
        <mxCell id="6r_czfJmqFWzA4xo3NPq-97" value="HAS_LEADER" style="rhombus;whiteSpace=wrap;html=1;" vertex="1" parent="1">
          <mxGeometry x="1030" y="1053" width="100" height="80" as="geometry" />
        </mxCell>
        <mxCell id="6r_czfJmqFWzA4xo3NPq-98" value="" style="endArrow=none;html=1;rounded=0;exitX=1;exitY=0.25;exitDx=0;exitDy=0;entryX=0;entryY=0.5;entryDx=0;entryDy=0;" edge="1" parent="1" source="6r_czfJmqFWzA4xo3NPq-6" target="6r_czfJmqFWzA4xo3NPq-97">
          <mxGeometry width="50" height="50" relative="1" as="geometry">
            <mxPoint x="960" y="1070" as="sourcePoint" />
            <mxPoint x="1010" y="1020" as="targetPoint" />
          </mxGeometry>
        </mxCell>
        <mxCell id="6r_czfJmqFWzA4xo3NPq-100" value="&lt;font style=&quot;font-size: 18px;&quot;&gt;1&lt;/font&gt;" style="edgeLabel;html=1;align=center;verticalAlign=middle;resizable=0;points=[];" vertex="1" connectable="0" parent="6r_czfJmqFWzA4xo3NPq-98">
          <mxGeometry x="-0.7808" y="1" relative="1" as="geometry">
            <mxPoint as="offset" />
          </mxGeometry>
        </mxCell>
        <mxCell id="6r_czfJmqFWzA4xo3NPq-99" value="" style="endArrow=none;html=1;rounded=0;exitX=0.805;exitY=0.384;exitDx=0;exitDy=0;exitPerimeter=0;" edge="1" parent="1" source="6r_czfJmqFWzA4xo3NPq-97" target="6r_czfJmqFWzA4xo3NPq-5">
          <mxGeometry width="50" height="50" relative="1" as="geometry">
            <mxPoint x="960" y="1070" as="sourcePoint" />
            <mxPoint x="1010" y="1020" as="targetPoint" />
            <Array as="points" />
          </mxGeometry>
        </mxCell>
        <mxCell id="6r_czfJmqFWzA4xo3NPq-101" value="&lt;font style=&quot;font-size: 18px;&quot;&gt;1&lt;/font&gt;" style="edgeLabel;html=1;align=center;verticalAlign=middle;resizable=0;points=[];" vertex="1" connectable="0" parent="6r_czfJmqFWzA4xo3NPq-99">
          <mxGeometry x="0.4277" y="-1" relative="1" as="geometry">
            <mxPoint as="offset" />
          </mxGeometry>
        </mxCell>
        <mxCell id="6r_czfJmqFWzA4xo3NPq-102" value="IS_RESPONSIBLE_FOR" style="rhombus;whiteSpace=wrap;html=1;" vertex="1" parent="1">
          <mxGeometry x="1100" y="1560" width="210" height="80" as="geometry" />
        </mxCell>
        <mxCell id="6r_czfJmqFWzA4xo3NPq-103" value="" style="endArrow=none;html=1;rounded=0;entryX=0.75;entryY=1;entryDx=0;entryDy=0;exitX=0.5;exitY=0;exitDx=0;exitDy=0;" edge="1" parent="1" source="6r_czfJmqFWzA4xo3NPq-102" target="6r_czfJmqFWzA4xo3NPq-5">
          <mxGeometry width="50" height="50" relative="1" as="geometry">
            <mxPoint x="1080" y="820" as="sourcePoint" />
            <mxPoint x="1130" y="770" as="targetPoint" />
          </mxGeometry>
        </mxCell>
        <mxCell id="6r_czfJmqFWzA4xo3NPq-104" value="&lt;font style=&quot;font-size: 18px;&quot;&gt;1&lt;/font&gt;" style="edgeLabel;html=1;align=center;verticalAlign=middle;resizable=0;points=[];" vertex="1" connectable="0" parent="6r_czfJmqFWzA4xo3NPq-103">
          <mxGeometry x="0.9076" y="-2" relative="1" as="geometry">
            <mxPoint as="offset" />
          </mxGeometry>
        </mxCell>
        <mxCell id="6r_czfJmqFWzA4xo3NPq-105" value="" style="endArrow=none;html=1;rounded=0;entryX=0;entryY=0.5;entryDx=0;entryDy=0;" edge="1" parent="1" target="6r_czfJmqFWzA4xo3NPq-102">
          <mxGeometry width="50" height="50" relative="1" as="geometry">
            <mxPoint y="1250" as="sourcePoint" />
            <mxPoint x="700" y="1600" as="targetPoint" />
          </mxGeometry>
        </mxCell>
        <mxCell id="6r_czfJmqFWzA4xo3NPq-107" value="" style="endArrow=none;html=1;rounded=0;entryX=0.75;entryY=1;entryDx=0;entryDy=0;" edge="1" parent="1" target="6r_czfJmqFWzA4xo3NPq-3">
          <mxGeometry width="50" height="50" relative="1" as="geometry">
            <mxPoint y="1250" as="sourcePoint" />
            <mxPoint x="1130" y="770" as="targetPoint" />
          </mxGeometry>
        </mxCell>
        <mxCell id="6r_czfJmqFWzA4xo3NPq-109" value="&lt;font style=&quot;font-size: 18px;&quot;&gt;1&lt;/font&gt;" style="edgeLabel;html=1;align=center;verticalAlign=middle;resizable=0;points=[];" vertex="1" connectable="0" parent="6r_czfJmqFWzA4xo3NPq-107">
          <mxGeometry x="0.9658" relative="1" as="geometry">
            <mxPoint as="offset" />
          </mxGeometry>
        </mxCell>
      </root>
    </mxGraphModel>
  </diagram>
</mxfile>
